<?xml version="1.0" encoding="UTF-8" standalone="no"?>
<!DOCTYPE svg PUBLIC "-//W3C//DTD SVG 1.1//EN" "http://www.w3.org/Graphics/SVG/1.1/DTD/svg11.dtd">
<svg width="100%" height="100%" viewBox="0 0 141 120" version="1.1" xmlns="http://www.w3.org/2000/svg" xmlns:xlink="http://www.w3.org/1999/xlink" xml:space="preserve" xmlns:serif="http://www.serif.com/" style="fill-rule:evenodd;clip-rule:evenodd;stroke-linejoin:round;stroke-miterlimit:2;">
    <g transform="matrix(1,0,0,1,-544.337,-586.693)">
        <g>
            <g transform="matrix(1,0,0,1,-284.237,-210.521)">
                <path d="M870.072,812.402C870.071,812.339 870.071,812.276 870.071,812.214C870.071,803.935 876.792,797.214 885.071,797.214C893.349,797.214 900.071,803.935 900.071,812.214C900.071,812.276 900.07,812.339 900.069,812.401L900.127,812.401C908.405,812.401 915.127,819.122 915.127,827.401C915.127,835.68 908.405,842.401 900.127,842.401C891.848,842.401 885.127,835.68 885.127,827.401C885.127,827.338 885.127,827.276 885.128,827.213L885.071,827.214C885.033,827.214 884.996,827.213 884.959,827.213C884.96,827.276 884.96,827.338 884.96,827.401C884.96,835.68 878.239,842.401 869.96,842.401C861.681,842.401 854.96,835.68 854.96,827.401C854.96,819.122 861.681,812.401 869.96,812.401C869.997,812.401 870.035,812.401 870.072,812.402Z" style="fill:rgb(242,242,242);"/>
            </g>
            <g transform="matrix(1.02064,0,0,1.01681,-621.394,-309.105)">
                <path d="M1244.74,950.366C1245.74,948.367 1247.77,947.104 1250,947.104C1252.22,947.104 1254.26,948.367 1255.26,950.366C1261.48,962.87 1271.63,983.243 1276.55,993.107C1277.15,994.331 1277.09,995.783 1276.37,996.947C1275.66,998.11 1274.39,998.818 1273.03,998.818C1257.82,998.818 1220.6,998.818 1220.6,998.818C1220.6,998.818 1236.28,967.341 1244.74,950.366Z" style="fill:rgb(56,14,14);"/>
            </g>
            <path d="M661.924,706.415L548.33,706.415C546.948,706.415 545.663,705.7 544.935,704.524C544.207,703.349 544.139,701.881 544.754,700.643C553.52,683.016 579.69,630.39 585.39,618.928C586.066,617.568 587.454,616.707 588.973,616.706L591.396,616.704C591.395,616.665 591.395,616.626 591.395,616.587C591.395,612.708 594.544,609.559 598.423,609.559C602.301,609.559 605.451,612.708 605.451,616.587C605.451,616.622 605.45,616.657 605.45,616.691L608.555,616.689C608.553,616.64 608.552,616.59 608.552,616.541C608.552,614.33 610.347,612.535 612.558,612.535C614.769,612.535 616.564,614.33 616.564,616.541C616.564,616.76 616.547,616.975 616.513,617.184C617.204,617.568 617.78,618.155 618.147,618.889L661.924,706.415Z" style="fill:rgb(95,31,31);"/>
            <clipPath id="_clip1">
                <path d="M661.924,706.415L548.33,706.415C546.948,706.415 545.663,705.7 544.935,704.524C544.207,703.349 544.139,701.881 544.754,700.643C553.52,683.016 579.69,630.39 585.39,618.928C586.066,617.568 587.454,616.707 588.973,616.706L591.396,616.704C591.395,616.665 591.395,616.626 591.395,616.587C591.395,612.708 594.544,609.559 598.423,609.559C602.301,609.559 605.451,612.708 605.451,616.587C605.451,616.622 605.45,616.657 605.45,616.691L608.555,616.689C608.553,616.64 608.552,616.59 608.552,616.541C608.552,614.33 610.347,612.535 612.558,612.535C614.769,612.535 616.564,614.33 616.564,616.541C616.564,616.76 616.547,616.975 616.513,617.184C617.204,617.568 617.78,618.155 618.147,618.889L661.924,706.415Z"/>
            </clipPath>
            <g clip-path="url(#_clip1)">
                <g transform="matrix(1,0,0,1.12981,-558.159,-409.086)">
                    <rect x="1104.21" y="898.6" width="95.942" height="51.479" style="fill:rgb(219,33,33);"/>
                </g>
                <g transform="matrix(1.07421,0,0,1.0079,-687.043,-250.431)">
                    <path d="M1199.79,880.019L1190.48,880.019L1190.48,914.758C1190.48,916.07 1190.97,917.329 1191.84,918.257C1192.71,919.184 1193.89,919.706 1195.12,919.706C1195.12,919.706 1195.13,919.706 1195.13,919.706C1197.7,919.706 1199.79,917.482 1199.79,914.738C1199.79,904.088 1199.79,880.019 1199.79,880.019Z" style="fill:rgb(219,33,33);"/>
                </g>
                <g transform="matrix(1.07421,0,0,2.41146,-667.067,-1505.37)">
                    <path d="M1199.79,880.019L1190.48,880.019L1190.48,917.638C1190.48,918.186 1190.97,918.712 1191.84,919.1C1192.71,919.488 1193.89,919.706 1195.12,919.706C1195.12,919.706 1195.13,919.706 1195.13,919.706C1197.7,919.706 1199.79,918.776 1199.79,917.629C1199.79,909.466 1199.79,880.019 1199.79,880.019Z" style="fill:rgb(219,33,33);"/>
                </g>
                <g transform="matrix(1.07421,0,0,1.0079,-647.171,-240.102)">
                    <path d="M1199.79,880.019L1190.48,880.019L1190.48,914.758C1190.48,916.07 1190.97,917.329 1191.84,918.257C1192.71,919.184 1193.89,919.706 1195.12,919.706C1195.12,919.706 1195.13,919.706 1195.13,919.706C1197.7,919.706 1199.79,917.482 1199.79,914.738C1199.79,904.088 1199.79,880.019 1199.79,880.019Z" style="fill:rgb(219,33,33);"/>
                </g>
                <g transform="matrix(1.07421,0,0,1.0079,-707.005,-257.354)">
                    <path d="M1199.79,880.019L1190.48,880.019L1190.48,914.758C1190.48,916.07 1190.97,917.329 1191.84,918.257C1192.71,919.184 1193.89,919.706 1195.12,919.706C1195.12,919.706 1195.13,919.706 1195.13,919.706C1197.7,919.706 1199.79,917.482 1199.79,914.738C1199.79,904.088 1199.79,880.019 1199.79,880.019Z" style="fill:rgb(219,33,33);"/>
                </g>
                <g transform="matrix(1.07421,0,0,-1.0079,-697.043,1563.52)">
                    <path d="M1199.79,880.019L1190.48,880.019L1190.48,914.758C1190.48,916.07 1190.97,917.329 1191.84,918.257C1192.71,919.184 1193.89,919.706 1195.12,919.706C1195.12,919.706 1195.13,919.706 1195.13,919.706C1197.7,919.706 1199.79,917.482 1199.79,914.738C1199.79,904.088 1199.79,880.019 1199.79,880.019Z" style="fill:rgb(95,31,31);"/>
                </g>
                <g transform="matrix(1.07421,0,0,-1.0079,-677.059,1573.93)">
                    <path d="M1199.79,880.019L1190.48,880.019L1190.48,914.758C1190.48,916.07 1190.97,917.329 1191.84,918.257C1192.71,919.184 1193.89,919.706 1195.12,919.706C1195.12,919.706 1195.13,919.706 1195.13,919.706C1197.7,919.706 1199.79,917.482 1199.79,914.738C1199.79,904.088 1199.79,880.019 1199.79,880.019Z" style="fill:rgb(95,31,31);"/>
                </g>
                <g transform="matrix(1.07421,0,0,-1.0079,-657.052,1583.65)">
                    <path d="M1199.79,880.019L1190.48,880.019L1190.48,914.758C1190.48,916.07 1190.97,917.329 1191.84,918.257C1192.71,919.184 1193.89,919.706 1195.12,919.706C1195.12,919.706 1195.13,919.706 1195.13,919.706C1197.7,919.706 1199.79,917.482 1199.79,914.738C1199.79,904.088 1199.79,880.019 1199.79,880.019Z" style="fill:rgb(95,31,31);"/>
                </g>
                <g transform="matrix(1.07421,0,0,-1.0079,-716.978,1583.72)">
                    <path d="M1199.79,880.019L1190.48,880.019L1190.48,914.758C1190.48,916.07 1190.97,917.329 1191.84,918.257C1192.71,919.184 1193.89,919.706 1195.12,919.706C1195.12,919.706 1195.13,919.706 1195.13,919.706C1197.7,919.706 1199.79,917.482 1199.79,914.738C1199.79,904.088 1199.79,880.019 1199.79,880.019Z" style="fill:rgb(95,31,31);"/>
                </g>
            </g>
        </g>
    </g>
</svg>
